# xmcd
#
# Track frame offsets: 
#        183
#        13070
#        26583
#        36855
#        54608
#        65828
#        86608
#        102468
#        121255
#        135008
#        148790
#
# Disc length: 2212 seconds
#
# Revision: 2
# Processed by: cddbd v1.5.2PL0 Copyright (c) Steve Scherf et al.
# Submitted via: ExactAudioCopy v0.95b4
#
DISCID=9608a20b
DTITLE=The Beatles - Magical Mystery Tour
DYEAR=1967
DGENRE=Rock
TTITLE0=Magical Mystery Tour
TTITLE1=The Fool On The Hill
TTITLE2=Flying
TTITLE3=Blue Jay Way
TTITLE4=Your Mother Should Know
TTITLE5=I Am The Walrus
TTITLE6=Hello Goodbye
TTITLE7=Strawberry Fields Forever
TTITLE8=Penny Lane
TTITLE9=Baby You're A Rich Man
TTITLE10=All You Need Is Love
EXTD=
EXTT0=
EXTT1=
EXTT2=
EXTT3=
EXTT4=
EXTT5=
EXTT6=
EXTT7=
EXTT8=
EXTT9=
EXTT10=
PLAYORDER=
